<?xml version="1.0" encoding="UTF-8" standalone="no"?>
<!DOCTYPE svg PUBLIC "-//W3C//DTD SVG 1.1//EN" "http://www.w3.org/Graphics/SVG/1.1/DTD/svg11.dtd">
<svg width="100%" height="100%" viewBox="0 0 2560 1440" version="1.1" xmlns="http://www.w3.org/2000/svg" xmlns:xlink="http://www.w3.org/1999/xlink" xml:space="preserve" xmlns:serif="http://www.serif.com/" style="fill-rule:evenodd;clip-rule:evenodd;stroke-linejoin:round;stroke-miterlimit:2;">
    <g transform="matrix(1.79862,0,0,1.79862,-131.816,132.788)">
        <path d="M981.029,673.757C981.865,650.65 963.813,631.241 940.706,630.404C931.282,630.063 922.476,632.865 915.291,637.869C901.528,625.405 883.474,617.531 863.467,616.807C836.432,615.828 812.002,628.115 796.418,647.826C783.446,637.909 767.398,631.756 749.839,631.12C746.956,631.016 744.104,631.066 741.287,631.257C739.79,619.811 730.236,610.775 718.316,610.344C709.843,610.037 702.248,614.159 697.723,620.625C690.451,613.01 680.324,608.107 668.97,607.696C659.035,607.336 649.789,610.476 642.404,616C635.438,609.956 626.442,606.156 616.508,605.796C594.429,604.997 575.737,621.449 573.388,643.073C572.488,642.616 571.572,642.178 570.626,641.78C560.605,637.569 549.873,637.555 540.381,640.934C538.942,626.749 527.257,615.433 512.606,614.902C504.605,614.612 497.244,617.592 491.809,622.645C484.983,617.068 476.351,613.589 466.864,613.245C449.177,612.605 433.667,623.039 426.984,638.328C421.013,635.25 414.291,633.399 407.132,633.14C401.563,632.938 396.186,633.719 391.163,635.315C382.672,608.529 358.097,588.687 328.406,587.611C317.571,587.22 307.239,589.379 297.973,593.535C297.049,582.088 287.691,572.888 275.933,572.462C274.688,572.417 273.47,572.5 272.271,572.647C267.407,562.699 257.367,555.683 245.528,555.255C242.984,555.162 240.513,555.414 238.126,555.906C236.577,541.455 227.634,529.11 215.042,522.883C219.654,510.273 217.804,496.747 211.053,486.094C214.188,483.176 216.211,479.062 216.378,474.443C216.66,466.661 211.577,459.947 204.45,457.813C209.134,452.869 212.126,446.285 212.393,438.943C212.78,428.241 207.301,418.706 198.854,413.373C204.896,406.406 208.694,397.414 209.054,387.481C209.649,371.034 200.669,356.467 187.113,349.131C190.709,345.093 192.976,339.827 193.187,334.001C193.667,320.715 183.287,309.554 170.001,309.073C169.469,309.054 168.947,309.081 168.423,309.096C169.586,305.273 170.284,301.243 170.436,297.062C171.163,276.993 159.217,259.413 141.774,252.003C142.809,247.278 143.461,242.405 143.642,237.4C145.274,192.328 110.059,154.467 64.987,152.834C19.915,151.203 -17.945,186.417 -19.578,231.489C-21.21,276.562 14.004,314.422 59.076,316.055C63.433,316.212 67.72,316.018 71.915,315.511L48.426,610.174L251.867,810.521L928.682,796.278L944.255,713.801C964.358,711.376 980.273,694.631 981.029,673.757Z" style="fill:rgb(93,141,207);fill-rule:nonzero;"/>
    </g>
</svg>
