<?xml version="1.0" encoding="UTF-8" standalone="no"?>
<!DOCTYPE svg PUBLIC "-//W3C//DTD SVG 1.1//EN" "http://www.w3.org/Graphics/SVG/1.1/DTD/svg11.dtd">
<svg width="100%" height="100%" viewBox="0 0 2560 1440" version="1.1" xmlns="http://www.w3.org/2000/svg" xmlns:xlink="http://www.w3.org/1999/xlink" xml:space="preserve" xmlns:serif="http://www.serif.com/" style="fill-rule:evenodd;clip-rule:evenodd;stroke-linejoin:round;stroke-miterlimit:2;">
    <g transform="matrix(1.79862,0,0,1.79862,-113.254,96.5281)">
        <path d="M922.725,697.394C928.317,643.88 889.47,595.966 835.957,590.373C829.166,589.664 822.467,589.677 815.932,590.337C811.561,571.457 795.645,556.551 775.289,554.424C758.446,552.663 742.761,560.087 733.214,572.655C714.595,572.425 697.293,579.477 684.311,591.365C680.006,586.655 674.049,583.425 667.204,582.709C653.147,581.24 640.5,590.835 637.884,604.463C631.972,598.547 624.07,594.541 615.104,593.604C605.872,592.64 597.075,595.091 589.956,599.93C582.578,588.251 570.125,579.938 555.32,578.392C535.375,576.307 517.057,587.104 508.632,604.066C505.595,601.461 502.29,599.147 498.757,597.173C491.816,593.295 483.993,590.728 475.584,589.849C460.498,588.272 446.138,592.398 434.62,600.469C431.098,591.267 422.676,584.32 412.206,583.226C399.663,581.915 388.258,589.424 384.082,600.734C376.59,592.085 365.93,586.145 353.65,584.861C345.598,584.021 337.812,585.279 330.833,588.194C324.412,573.063 310.186,561.78 292.679,559.951C286.744,559.331 280.957,559.863 275.527,561.348C264.596,541.096 246.645,524.977 224.571,516.547C226.35,513.188 227.546,509.451 227.965,505.44C229.345,492.238 222.075,480.153 210.746,474.739C219.743,467.224 225.945,456.343 227.26,443.762C229.038,426.749 221.44,410.925 208.643,401.407C221.461,400.488 232.173,390.518 233.555,377.29C234.623,367.074 229.849,357.594 221.929,352.172C227.085,347.827 230.645,341.572 231.401,334.336C232.952,319.495 222.179,306.207 207.338,304.656C204.224,304.331 201.188,304.576 198.306,305.259C201.122,299.999 202.994,294.122 203.653,287.821C205.985,265.498 192.43,245.189 172.115,238.113C172.543,236.399 172.864,234.639 173.053,232.832C175.222,212.077 160.155,193.493 139.4,191.324C118.645,189.155 100.062,204.222 97.892,224.977C97.433,229.375 97.754,233.673 98.733,237.741L-16.179,270.305L33.889,737.747L834.259,812.535L830.962,784.56C878.045,782.134 917.671,745.758 922.725,697.394Z" style="fill:rgb(115,166,230);fill-rule:nonzero;"/>
    </g>
    <g transform="matrix(1,0,0,1,-640,337)">
        <g transform="matrix(1.32087,0,0,1.32087,734.916,-114.018)">
            <path d="M910.37,544.483C910.363,553.92 902.707,561.564 893.27,561.558C883.833,561.55 876.188,553.894 876.195,544.456C876.203,535.02 883.859,527.375 893.297,527.382C902.733,527.39 910.378,535.046 910.37,544.483Z" style="fill:rgb(115,166,230);fill-rule:nonzero;"/>
        </g>
        <g transform="matrix(1.32087,0,0,1.32087,734.916,-114.018)">
            <path d="M713.13,533.927C713.128,537.004 710.631,539.496 707.554,539.494C704.477,539.491 701.983,536.995 701.986,533.918C701.989,530.84 704.485,528.348 707.563,528.351C710.64,528.353 713.133,530.849 713.13,533.927Z" style="fill:rgb(115,166,230);fill-rule:nonzero;"/>
        </g>
        <g transform="matrix(1.32087,0,0,1.32087,734.916,-114.018)">
            <path d="M242.691,269.814C242.687,274.738 238.692,278.726 233.769,278.722C228.845,278.718 224.856,274.724 224.86,269.8C224.864,264.876 228.859,260.888 233.783,260.892C238.707,260.896 242.695,264.89 242.691,269.814Z" style="fill:rgb(115,166,230);fill-rule:nonzero;"/>
        </g>
        <g transform="matrix(1.32087,0,0,1.32087,734.916,-114.018)">
            <path d="M163.051,151.59C163.045,159.362 156.739,165.658 148.968,165.651C141.196,165.646 134.9,159.34 134.906,151.568C134.913,143.796 141.218,137.501 148.99,137.507C156.762,137.513 163.057,143.818 163.051,151.59Z" style="fill:rgb(115,166,230);fill-rule:nonzero;"/>
        </g>
        <g transform="matrix(1.32087,0,0,1.32087,734.916,-114.018)">
            <path d="M615.311,559.392C615.594,570.855 606.529,580.379 595.065,580.662C583.601,580.945 574.078,571.882 573.794,560.417C573.511,548.953 582.575,539.43 594.04,539.146C605.504,538.863 615.027,547.927 615.311,559.392Z" style="fill:rgb(93,141,207);fill-rule:nonzero;"/>
        </g>
        <g transform="matrix(1.32087,0,0,1.32087,734.916,-114.018)">
            <path d="M966.616,680.381C966.361,670.087 974.501,661.535 984.795,661.281C995.09,661.026 1003.64,669.165 1003.9,679.46C1004.15,689.754 996.011,698.306 985.716,698.561C975.422,698.814 966.87,690.676 966.616,680.381Z" style="fill:rgb(93,141,207);fill-rule:nonzero;"/>
        </g>
    </g>
</svg>
