<?xml version="1.0" encoding="UTF-8" standalone="no"?>
<!DOCTYPE svg PUBLIC "-//W3C//DTD SVG 1.1//EN" "http://www.w3.org/Graphics/SVG/1.1/DTD/svg11.dtd">
<svg width="100%" height="100%" viewBox="0 0 2560 1440" version="1.1" xmlns="http://www.w3.org/2000/svg" xmlns:xlink="http://www.w3.org/1999/xlink" xml:space="preserve" xmlns:serif="http://www.serif.com/" style="fill-rule:evenodd;clip-rule:evenodd;stroke-linejoin:round;stroke-miterlimit:2;">
    <g transform="matrix(1.79862,0,0,1.79862,-162.465,181.135)">
        <path d="M788.089,738.832C793.878,692.786 761.244,650.766 715.198,644.977C709.355,644.242 703.578,644.132 697.931,644.584C694.503,628.224 681.047,615.082 663.531,612.88C649.039,611.058 635.378,617.177 626.919,627.841C610.867,627.307 595.819,633.074 584.41,643.093C580.783,638.953 575.704,636.06 569.814,635.319C557.719,633.799 546.64,641.844 544.137,653.549C539.146,648.34 532.405,644.743 524.689,643.773C516.745,642.774 509.115,644.729 502.889,648.773C496.738,638.569 486.149,631.177 473.41,629.575C456.249,627.417 440.258,636.396 432.685,650.872C425.061,644.05 415.363,639.388 404.443,638.015C391.462,636.383 379.005,639.682 368.926,646.433C366.056,638.434 358.918,632.291 349.909,631.158C339.117,629.802 329.146,636.07 325.341,645.749C319.036,638.154 309.951,632.84 299.385,631.512C292.457,630.641 285.719,631.586 279.649,633.974C274.384,620.809 262.321,610.822 247.257,608.929C242.15,608.286 237.15,608.642 232.44,609.823C223.38,592.161 208.191,577.938 189.308,570.269C190.903,567.405 192.002,564.204 192.436,560.753C193.864,549.393 187.813,538.84 178.141,533.967C186.036,527.648 191.581,518.377 192.942,507.552C194.782,492.913 188.517,479.13 177.653,470.692C188.724,470.131 198.14,461.727 199.571,450.345C200.676,441.554 196.73,433.293 189.999,428.474C194.524,424.82 197.707,419.491 198.49,413.265C200.095,400.494 191.045,388.841 178.275,387.235C175.596,386.898 172.974,387.056 170.475,387.593C172.999,383.107 174.72,378.072 175.401,372.651C177.816,353.443 166.493,335.686 149.103,329.216C149.503,327.747 149.812,326.234 150.007,324.679C152.252,306.82 139.595,290.522 121.737,288.277C103.878,286.032 87.58,298.689 85.335,316.548C84.859,320.333 85.059,324.045 85.829,327.57L-13.852,353.575L20.879,757.575L709.722,836.525L707.383,812.341C748.028,811.1 782.857,780.447 788.089,738.832Z" style="fill:rgb(69,108,176);fill-rule:nonzero;"/>
    </g>
</svg>
