<?xml version="1.0" encoding="UTF-8" standalone="no"?>
<!DOCTYPE svg PUBLIC "-//W3C//DTD SVG 1.1//EN" "http://www.w3.org/Graphics/SVG/1.1/DTD/svg11.dtd">
<svg width="100%" height="100%" viewBox="0 0 2560 1440" version="1.1" xmlns="http://www.w3.org/2000/svg" xmlns:xlink="http://www.w3.org/1999/xlink" xml:space="preserve" xmlns:serif="http://www.serif.com/" style="fill-rule:evenodd;clip-rule:evenodd;stroke-linejoin:round;stroke-miterlimit:2;">
    <g transform="matrix(1.79862,0,0,1.79862,-162.465,181.135)">
        <path d="M760.234,742.052C762.825,722.927 749.423,705.323 730.298,702.731C722.499,701.675 714.953,703.28 708.574,706.847C698.166,695.365 683.814,687.343 667.256,685.099C644.879,682.067 623.578,690.269 609.016,705.362C599.055,696.061 586.229,689.633 571.696,687.663C569.31,687.34 566.937,687.148 564.582,687.075C564.277,677.444 557.083,669.156 547.217,667.819C540.204,666.869 533.558,669.67 529.268,674.669C523.852,667.746 515.843,662.843 506.445,661.57C498.223,660.456 490.285,662.305 483.697,666.287C478.406,660.695 471.247,656.801 463.024,655.687C444.749,653.211 427.873,665.344 424.147,683.112C423.437,682.659 422.712,682.22 421.959,681.812C413.981,677.492 405.067,676.599 396.906,678.627C396.875,666.727 388.097,656.367 375.971,654.724C369.349,653.827 362.989,655.698 358.06,659.448C352.848,654.257 345.964,650.658 338.111,649.595C323.472,647.611 309.733,655.005 302.927,667.157C298.22,664.109 292.788,662.021 286.863,661.218C282.253,660.593 277.723,660.8 273.419,661.714C268.564,638.769 249.779,620.27 225.206,616.939C216.238,615.725 207.478,616.671 199.44,619.363C199.612,609.778 192.594,601.368 182.862,600.05C181.832,599.91 180.813,599.879 179.805,599.903C176.582,591.241 168.817,584.589 159.018,583.261C156.913,582.976 154.84,582.981 152.817,583.194C152.716,571.063 146.3,560.076 136.352,553.87C141.218,543.774 140.791,532.387 136.058,522.984C138.901,520.818 140.919,517.566 141.437,513.743C142.31,507.303 138.639,501.308 132.894,498.951C137.19,495.229 140.216,490.005 141.039,483.929C142.24,475.07 138.471,466.701 131.892,461.577C137.482,456.287 141.375,449.129 142.489,440.908C144.334,427.295 138.07,414.458 127.411,407.252C130.729,404.192 133.044,400.005 133.698,395.183C135.188,384.186 127.481,374.063 116.484,372.574C116.044,372.514 115.608,372.494 115.172,372.463C116.451,369.384 117.362,366.092 117.832,362.632C120.082,346.021 111.602,330.439 97.721,322.853C98.968,319.013 99.91,315.018 100.471,310.875C105.525,273.571 79.381,239.232 42.076,234.177C4.771,229.123 -29.567,255.267 -34.621,292.572C-39.676,329.877 -13.532,364.216 23.772,369.27C27.378,369.759 30.955,369.949 34.481,369.872L-9.209,612.705L143.336,795.816L706.698,839.527L726.402,772.296C743.3,771.932 757.894,759.328 760.234,742.052Z" style="fill:rgb(39,82,140);fill-rule:nonzero;"/>
    </g>
    <g transform="matrix(1,0,0,1,-640,337)">
        <g transform="matrix(1.90561,0,0,1.90561,441.217,-219.454)">
            <path d="M155.322,247.755C155.53,256.178 148.871,263.174 140.449,263.382C132.026,263.59 125.029,256.931 124.821,248.508C124.613,240.086 131.272,233.089 139.695,232.881C148.118,232.673 155.114,239.332 155.322,247.755Z" style="fill:rgb(39,82,140);fill-rule:nonzero;"/>
        </g>
        <g transform="matrix(1.90561,0,0,1.90561,441.217,-219.454)">
            <path d="M172.903,393.138C172.989,396.647 170.215,399.563 166.706,399.649C163.196,399.736 160.281,396.961 160.194,393.452C160.107,389.942 162.882,387.027 166.392,386.94C169.901,386.854 172.816,389.628 172.903,393.138Z" style="fill:rgb(39,82,140);fill-rule:nonzero;"/>
        </g>
        <g transform="matrix(1.90561,0,0,1.90561,441.217,-219.454)">
            <path d="M700.942,645.444C701.15,653.867 694.491,660.863 686.068,661.071C677.646,661.279 670.649,654.62 670.441,646.198C670.232,637.775 676.892,630.778 685.314,630.57C693.737,630.362 700.734,637.021 700.942,645.444Z" style="fill:rgb(39,82,140);fill-rule:nonzero;"/>
        </g>
        <g transform="matrix(1.90561,0,0,1.90561,441.217,-219.454)">
            <path d="M793.434,597.379C793.509,600.421 791.104,602.947 788.063,603.022C785.021,603.098 782.494,600.692 782.419,597.651C782.344,594.609 784.749,592.083 787.79,592.008C790.832,591.933 793.358,594.338 793.434,597.379Z" style="fill:rgb(39,82,140);fill-rule:nonzero;"/>
        </g>
        <g transform="matrix(1.90561,0,0,1.90561,441.217,-219.454)">
            <path d="M860.311,644.897C860.414,649.109 857.085,652.607 852.873,652.711C848.662,652.815 845.164,649.485 845.06,645.274C844.956,641.063 848.285,637.564 852.497,637.461C856.708,637.356 860.206,640.687 860.311,644.897Z" style="fill:rgb(39,82,140);fill-rule:nonzero;"/>
        </g>
        <g transform="matrix(1.90561,0,0,1.90561,441.217,-219.454)">
            <path d="M235.451,539.953C235.162,528.255 225.444,519.006 213.746,519.295C202.048,519.584 192.799,529.302 193.088,540.999C193.377,552.697 203.095,561.946 214.792,561.657C226.491,561.368 235.74,551.651 235.451,539.953Z" style="fill:rgb(39,82,140);fill-rule:nonzero;"/>
        </g>
        <g transform="matrix(1.90561,0,0,1.90561,441.217,-219.454)">
            <path d="M308.651,620.378C308.778,625.525 304.708,629.801 299.562,629.929C294.414,630.056 290.139,625.986 290.011,620.839C289.884,615.691 293.954,611.416 299.101,611.289C304.248,611.161 308.524,615.231 308.651,620.378Z" style="fill:rgb(39,82,140);fill-rule:nonzero;"/>
        </g>
        <g transform="matrix(1.90561,0,0,1.90561,441.217,-219.454)">
            <path d="M362.222,609.729C362.123,605.752 358.819,602.607 354.842,602.705C350.865,602.804 347.72,606.107 347.818,610.085C347.917,614.063 351.22,617.207 355.198,617.108C359.175,617.011 362.32,613.706 362.222,609.729Z" style="fill:rgb(39,82,140);fill-rule:nonzero;"/>
        </g>
    </g>
</svg>
