<?xml version="1.0" encoding="UTF-8" standalone="no"?>
<!DOCTYPE svg PUBLIC "-//W3C//DTD SVG 1.1//EN" "http://www.w3.org/Graphics/SVG/1.1/DTD/svg11.dtd">
<svg width="100%" height="100%" viewBox="0 0 2560 1440" version="1.1" xmlns="http://www.w3.org/2000/svg" xmlns:xlink="http://www.w3.org/1999/xlink" xml:space="preserve" xmlns:serif="http://www.serif.com/" style="fill-rule:evenodd;clip-rule:evenodd;stroke-linejoin:round;stroke-miterlimit:2;">
    <g transform="matrix(0.500709,-0.0286455,0.0273459,0.477992,-169.93,46.785)">
        <g transform="matrix(4.16667,0,0,4.16667,0,0)">
            <path d="M56.583,814.993L36.86,797.049L356.688,445.522L376.411,463.467L56.583,814.993Z" style="fill:rgb(93,141,207);fill-rule:nonzero;"/>
        </g>
        <g transform="matrix(4.16667,0,0,4.16667,0,0)">
            <path d="M72.704,829.661L63.881,821.634L383.709,470.106L392.532,478.135L72.704,829.661Z" style="fill:rgb(93,141,207);fill-rule:nonzero;"/>
        </g>
        <g transform="matrix(4.16667,0,0,4.16667,0,0)">
            <path d="M29.562,790.409L20.739,782.382L340.567,430.854L349.39,438.883L29.562,790.409Z" style="fill:rgb(93,141,207);fill-rule:nonzero;"/>
        </g>
        <g transform="matrix(4.16667,0,0,4.16667,0,0)">
            <path d="M344.456,467.144C341.698,460.979 338.556,454.988 335.055,449.214C331.434,443.241 327.297,436.801 326.565,430.104L311.878,442.221C311.705,442.333 311.545,442.459 311.409,442.608C307.528,446.874 320.538,465.03 340.467,483.163C342.304,484.834 344.136,486.446 345.951,487.994C346.984,485.783 347.712,483.471 347.886,481.019C348.226,476.216 346.422,471.538 344.456,467.144Z" style="fill:rgb(147,245,229);fill-rule:nonzero;"/>
        </g>
        <g transform="matrix(4.16667,0,0,4.16667,0,0)">
            <path d="M383.579,508.271C383.715,508.121 383.825,507.95 383.92,507.767L425.711,446.075L369.357,394.803L326.565,430.104C327.297,436.801 331.434,443.241 335.055,449.214C338.556,454.988 341.698,460.979 344.456,467.144C346.422,471.538 348.226,476.216 347.886,481.019C347.712,483.471 346.984,485.783 345.951,487.994C363.824,503.234 380.056,512.143 383.579,508.271Z" style="fill:rgb(93,194,174);fill-rule:nonzero;"/>
        </g>
        <g transform="matrix(4.16667,0,0,4.16667,0,0)">
            <path d="M423.322,275.105C397.944,306.289 371.207,336.507 338.587,359.781C325.535,369.093 311.475,377.284 296.124,381.911C285.429,385.135 274.037,386.535 262.97,385.365L242.498,409.317C259.575,424.853 283.814,427.58 301.179,415.797L459.718,308.22L423.322,275.105Z" style="fill:rgb(22,67,119);fill-rule:nonzero;"/>
        </g>
        <g transform="matrix(4.16667,0,0,4.16667,0,0)">
            <path d="M296.124,381.911C311.476,377.284 325.535,369.093 338.586,359.781C371.208,336.507 397.944,306.289 423.322,275.105L420.647,272.672C401.583,255.328 373.33,256.242 357.708,274.521L262.97,385.365C274.037,386.535 285.429,385.135 296.124,381.911Z" style="fill:rgb(16,86,151);fill-rule:nonzero;"/>
        </g>
        <g transform="matrix(4.16667,0,0,4.16667,0,0)">
            <path d="M508.146,456.631C524.548,441.147 540.951,425.664 557.354,410.181C555.651,400.435 550.665,390.965 542.466,383.506L503.395,347.958L414.402,510.156C428.424,509.508 442.482,505.083 454.967,498.476C474.968,487.891 491.69,472.164 508.146,456.631Z" style="fill:rgb(16,86,151);fill-rule:nonzero;"/>
        </g>
        <g transform="matrix(4.16667,0,0,4.16667,0,0)">
            <path d="M557.354,410.181C540.951,425.664 524.548,441.147 508.146,456.631C491.69,472.164 474.968,487.891 454.967,498.476C442.482,505.083 428.424,509.508 414.402,510.156L411.235,515.93C401.141,534.326 406.138,558.201 423.214,573.737L546.556,446.34C556.088,436.494 559.609,423.096 557.354,410.181Z" style="fill:rgb(22,67,119);fill-rule:nonzero;"/>
        </g>
        <g transform="matrix(4.16667,0,0,4.16667,0,0)">
            <path d="M361.682,431.478C349.352,417.93 341.117,404.86 339.215,395.901L329.908,408.268C326.408,412.735 330.013,422.726 338.404,434.543C342.093,433.187 345.924,432.222 349.866,431.814C353.779,431.409 357.733,431.449 361.682,431.478Z" style="fill:rgb(147,245,229);fill-rule:nonzero;"/>
        </g>
        <g transform="matrix(4.16667,0,0,4.16667,0,0)">
            <path d="M413.941,471.94C412.915,471.47 411.867,470.965 410.799,470.425C408.665,469.345 406.453,468.128 404.182,466.781C401.911,465.435 399.581,463.958 397.208,462.361C390.092,457.572 382.601,451.699 375.21,444.976C370.305,440.512 365.769,435.969 361.682,431.478C357.733,431.449 353.779,431.409 349.866,431.814C345.924,432.222 342.093,433.187 338.404,434.543C344.12,442.592 352.056,451.487 361.482,460.064C384.749,481.232 409.101,493.184 416.024,486.617L427.458,476.187C425.944,476.013 424.3,475.674 422.543,475.18C419.909,474.439 417.021,473.35 413.941,471.94Z" style="fill:rgb(93,194,174);fill-rule:nonzero;"/>
        </g>
        <g transform="matrix(4.16667,0,0,4.16667,0,0)">
            <path d="M377.72,430.361C388.511,427.944 397.532,420.78 406.035,413.71C460.606,368.328 511.127,318.089 556.885,263.833C553.694,261.289 550.517,258.591 547.382,255.739C530.265,240.165 517.505,222.916 510.512,208.404C472.297,232.441 440.155,261.776 416.025,293.838L339.215,395.901C341.117,404.86 349.352,417.93 361.682,431.477C367.082,431.517 372.47,431.536 377.72,430.361Z" style="fill:white;fill-rule:nonzero;"/>
        </g>
        <g transform="matrix(4.16667,0,0,4.16667,0,0)">
            <path d="M597.981,287.986C585.641,283.415 571.12,275.183 556.885,263.833C511.127,318.089 460.606,368.328 406.035,413.71C397.532,420.78 388.511,427.944 377.72,430.361C372.47,431.536 367.082,431.517 361.682,431.477C365.769,435.969 370.305,440.512 375.211,444.975C382.601,451.699 390.092,457.572 397.208,462.361C399.581,463.958 401.911,465.435 404.182,466.781C406.453,468.128 408.664,469.345 410.799,470.425C411.867,470.965 412.915,471.47 413.941,471.94C417.022,473.35 419.909,474.439 422.543,475.18C424.3,475.674 425.944,476.013 427.458,476.186L521.828,390.102C551.476,363.058 577.652,328.295 597.981,287.986Z" style="fill:rgb(210,211,211);fill-rule:nonzero;"/>
        </g>
        <g transform="matrix(4.16667,0,0,4.16667,0,0)">
            <path d="M556.885,263.833C585.991,229.322 613.169,193.185 638.226,155.631C591.136,166.432 547.919,184.875 510.512,208.404C517.505,222.917 530.265,240.166 547.382,255.739C550.517,258.591 553.694,261.289 556.885,263.833Z" style="fill:rgb(147,245,229);fill-rule:nonzero;"/>
        </g>
        <g transform="matrix(4.16667,0,0,4.16667,0,0)">
            <path d="M597.981,287.986C617.924,248.443 632.235,203.573 638.529,155.559L638.529,155.558C638.428,155.582 638.327,155.608 638.226,155.631C613.169,193.185 585.991,229.322 556.885,263.833C571.12,275.183 585.641,283.415 597.981,287.986Z" style="fill:rgb(93,194,174);fill-rule:nonzero;"/>
        </g>
        <g transform="matrix(4.16667,0,0,4.16667,0,0)">
            <path d="M454.308,371.326C454.002,371.061 453.697,370.79 453.396,370.516C440.284,358.586 434.762,341.43 437.113,325.113C438.528,315.298 442.791,305.786 449.967,297.899C460.111,286.749 474.032,281.087 488.005,281.087C500.349,281.087 512.734,285.508 522.584,294.47C523.986,295.746 525.302,297.082 526.53,298.469C503.5,323.761 479.398,348.079 454.308,371.326Z" style="fill:rgb(201,201,201);fill-rule:nonzero;"/>
        </g>
        <g transform="matrix(4.16667,0,0,4.16667,0,0)">
            <path d="M487.975,383.899C476.008,383.898 464.004,379.745 454.308,371.326C479.398,348.079 503.5,323.761 526.53,298.469C533.834,306.725 538.051,316.832 539.118,327.231C540.558,341.265 536.255,355.83 526.013,367.087C515.869,378.237 501.948,383.9 487.975,383.899Z" style="fill:rgb(166,166,166);fill-rule:nonzero;"/>
        </g>
        <g transform="matrix(4.16667,0,0,4.16667,0,0)">
            <path d="M495.682,340.167C513.34,337.425 529.203,327.098 541.024,313.661C539.778,301.514 534.233,289.764 524.49,280.9C503.491,261.794 470.979,263.329 451.874,284.329C444.697,292.216 440.434,301.728 439.02,311.543C440.982,315.305 443.121,318.95 445.755,322.269C457.273,336.779 477.375,343.01 495.682,340.167Z" style="fill:rgb(147,245,229);fill-rule:nonzero;"/>
        </g>
        <g transform="matrix(4.16667,0,0,4.16667,0,0)">
            <path d="M541.024,313.661C529.203,327.098 513.34,337.425 495.682,340.167C477.375,343.01 457.273,336.779 445.755,322.269C443.121,318.95 440.982,315.305 439.02,311.543C436.668,327.86 442.19,345.016 455.302,356.946C476.301,376.052 508.813,374.517 527.919,353.517C538.161,342.26 542.464,327.695 541.024,313.661Z" style="fill:rgb(93,194,174);fill-rule:nonzero;"/>
        </g>
        <g transform="matrix(4.16667,0,0,4.16667,0,0)">
            <path d="M527.202,304.252L452.674,304.033C451.309,307.448 450.438,311.005 450.05,314.602L529.767,314.836C529.398,311.227 528.541,307.664 527.202,304.252Z" style="fill:rgb(24,43,58);fill-rule:nonzero;"/>
        </g>
        <g transform="matrix(4.16667,0,0,4.16667,0,0)">
            <path d="M516.872,289.273C500.497,274.375 475.145,275.572 460.247,291.947C458.847,293.485 457.59,295.103 456.474,296.783L523.452,296.979C521.633,294.204 519.44,291.61 516.872,289.273Z" style="fill:rgb(24,43,58);fill-rule:nonzero;"/>
        </g>
        <g transform="matrix(4.16667,0,0,4.16667,0,0)">
            <path d="M512.289,352.169L467.316,352.037C480.93,361.345 498.829,361.251 512.289,352.169Z" style="fill:white;fill-rule:nonzero;"/>
        </g>
        <g transform="matrix(4.16667,0,0,4.16667,0,0)">
            <path d="M519.546,345.899C522.573,342.571 524.926,338.868 526.632,334.961L453.068,334.745C455.259,339.853 458.541,344.588 462.92,348.573C464.322,349.848 465.794,350.997 467.316,352.037L512.289,352.169C514.895,350.412 517.336,348.326 519.546,345.899Z" style="fill:rgb(24,43,58);fill-rule:nonzero;"/>
        </g>
        <g transform="matrix(4.16667,0,0,4.16667,0,0)">
            <path d="M529.767,314.836L450.05,314.602C449.316,321.422 450.335,328.374 453.068,334.745L526.632,334.961C529.423,328.569 530.46,321.625 529.767,314.836Z" style="fill:white;fill-rule:nonzero;"/>
        </g>
    </g>
</svg>
